<svg version="1.1" id="logo" viewBox="0 0 385 115" preserveAspectRatio="xMinYMin" xmlns="http://www.w3.org/2000/svg">
    <defs>
        <clipPath id="logo-clip-path">
            <rect id="logo-clip-rect" x="0" y="0" width="55" height="115"/>
        </clipPath>
    </defs>
    <g id="logo-name">
        <path fill="white" stroke="none" id="logo-chris" d="M106.86 48.73L106.86 48.73Q103.80 48.73 101.13 47.59Q98.46 46.45 96.42 44.11Q94.38 41.77 93.21 38.17Q92.04 34.57 92.04 29.59L92.04 29.59Q92.04 25.21 92.91 21.94Q93.78 18.67 95.28 16.42Q96.78 14.17 98.70 12.82Q100.62 11.47 102.72 10.84Q104.82 10.21 106.92 10.21L106.92 10.21Q111.12 10.21 114.09 12.16Q117.06 14.11 118.56 17.53L118.56 17.53L114.54 20.23L114.06 20.53L113.76 20.11Q113.88 19.63 113.73 19.18Q113.58 18.73 113.04 17.95L113.04 17.95Q111.72 16.21 110.22 15.61Q108.72 15.01 107.16 15.01L107.16 15.01Q105.24 15.01 103.53 15.94Q101.82 16.87 100.56 18.67Q99.30 20.47 98.58 23.14Q97.86 25.81 97.86 29.29L97.86 29.29Q97.86 32.65 98.55 35.32Q99.24 37.99 100.47 39.88Q101.70 41.77 103.35 42.76Q105 43.75 106.92 43.75L106.92 43.75Q108.42 43.75 109.68 43.33Q110.94 42.91 112.02 41.92Q113.10 40.93 113.94 39.55L113.94 39.55L118.14 42.49Q116.16 45.79 113.40 47.26Q110.64 48.73 106.86 48.73L106.86 48.73ZM123.66 48.07L123.66 7.93L129.54 7.93L130.14 7.93L130.14 8.47Q129.78 8.83 129.69 9.25Q129.60 9.67 129.60 10.69L129.60 10.69L129.60 24.37Q130.62 22.87 132.03 21.82Q133.44 20.77 134.97 20.20Q136.50 19.63 138.06 19.63L138.06 19.63Q140.70 19.63 142.65 20.83Q144.60 22.03 145.68 24.58Q146.76 27.13 146.76 31.33L146.76 31.33L146.76 48.07L140.88 48.07L140.88 31.39Q140.88 28.81 140.34 27.28Q139.80 25.75 138.84 25.06Q137.88 24.37 136.56 24.37L136.56 24.37Q135.48 24.37 134.49 24.73Q133.50 25.09 132.60 25.72Q131.70 26.35 131.04 27.31Q130.38 28.27 129.99 29.47Q129.60 30.67 129.60 32.11L129.60 32.11L129.60 48.07L123.66 48.07ZM155.94 48.13L155.94 20.29L162.12 20.29L162 28.21L161.28 27.55Q161.58 25.75 162.42 24.28Q163.26 22.81 164.49 21.79Q165.72 20.77 167.22 20.20Q168.72 19.63 170.34 19.63L170.34 19.63Q172.62 19.63 174.48 20.41Q176.34 21.19 177.84 22.75L177.84 22.75L175.32 27.67L175.08 28.21L174.60 27.97Q174.42 27.49 174.24 27.01Q174.06 26.53 173.34 25.87L173.34 25.87Q172.44 25.27 171.57 24.97Q170.70 24.67 169.56 24.67L169.56 24.67Q168.12 24.67 166.77 25.18Q165.42 25.69 164.34 26.77Q163.26 27.85 162.63 29.50Q162 31.15 162 33.49L162 33.49L162 48.13L155.94 48.13ZM204.60 48.07L185.40 48.07L185.40 43.33L192.30 43.33L192.30 25.03L185.70 25.03L185.70 20.29L198.30 20.29L198.30 43.33L204.60 43.33L204.60 48.07ZM194.94 15.31L194.94 15.31Q193.32 15.31 192.21 14.20Q191.10 13.09 191.10 11.59L191.10 11.59Q191.10 9.97 192.18 8.89Q193.26 7.81 194.94 7.81L194.94 7.81Q196.50 7.81 197.67 8.95Q198.84 10.09 198.84 11.59L198.84 11.59Q198.84 13.09 197.67 14.20Q196.50 15.31 194.94 15.31ZM225.42 48.73L225.42 48.73Q222.90 48.73 220.68 48.25Q218.46 47.77 216.51 46.81Q214.56 45.85 212.94 44.35L212.94 44.35L215.70 39.31L216.06 38.77L216.48 39.01Q216.60 39.49 216.78 40Q216.96 40.51 217.62 41.23L217.62 41.23Q219.06 42.49 220.92 43.24Q222.78 43.99 225.48 43.99L225.48 43.99Q227.34 43.99 228.63 43.54Q229.92 43.09 230.64 42.28Q231.36 41.47 231.36 40.45L231.36 40.45Q231.36 39.67 230.97 39.10Q230.58 38.53 229.80 38.02Q229.02 37.51 227.76 37Q226.50 36.49 224.70 36.01L224.70 36.01Q221.64 35.11 219.36 33.94Q217.08 32.77 215.82 31.15Q214.56 29.53 214.56 27.31L214.56 27.31Q214.56 25.09 215.85 23.38Q217.14 21.67 219.54 20.65Q221.94 19.63 225.24 19.63L225.24 19.63Q227.04 19.63 228.63 19.90Q230.22 20.17 231.57 20.71Q232.92 21.25 234.12 22.06Q235.32 22.87 236.40 23.95L236.40 23.95L233.34 28.03L232.98 28.51L232.56 28.15Q232.50 27.67 232.29 27.25Q232.08 26.83 231.42 26.17L231.42 26.17Q230.10 25.21 228.54 24.73Q226.98 24.25 225.36 24.25L225.36 24.25Q223.26 24.25 221.67 24.97Q220.08 25.69 220.08 27.13L220.08 27.13Q220.08 27.97 220.77 28.69Q221.46 29.41 223.02 30.10Q224.58 30.79 227.28 31.51L227.28 31.51Q230.70 32.41 232.80 33.58Q234.90 34.75 235.89 36.31Q236.88 37.87 236.88 39.97L236.88 39.97Q236.88 42.31 235.59 44.32Q234.30 46.33 231.72 47.53Q229.14 48.73 225.42 48.73L225.42 48.73Z"/>
        <path fill="red" stroke="none" id="logo-vroegop" d="M106.14 102.31L104.22 102.31L91.50 64.63L95.88 64.63L105.48 93.37L114.54 64.69L118.68 64.69L106.14 102.31ZM127.14 102.13L127.14 74.65L131.64 74.65L131.46 82.63L130.92 81.73Q131.28 79.87 132.18 78.43Q133.08 76.99 134.34 76Q135.60 75.01 137.10 74.50Q138.60 73.99 140.22 73.99L140.22 73.99Q142.38 73.99 144.21 74.74Q146.04 75.49 147.48 76.99L147.48 76.99L145.56 80.35L145.32 80.89L144.90 80.65Q144.78 80.17 144.54 79.75Q144.30 79.33 143.52 78.73L143.52 78.73Q142.56 78.13 141.75 77.92Q140.94 77.71 139.92 77.71L139.92 77.71Q138.42 77.71 136.92 78.28Q135.42 78.85 134.19 80.05Q132.96 81.25 132.24 83.11Q131.52 84.97 131.52 87.55L131.52 87.55L131.52 102.13L127.14 102.13ZM165 102.55L165 102.55Q161.28 102.55 158.43 100.72Q155.58 98.89 153.96 95.68Q152.34 92.47 152.34 88.33L152.34 88.33Q152.34 84.13 153.96 80.92Q155.58 77.71 158.43 75.88Q161.28 74.05 165 74.05L165 74.05Q168.72 74.05 171.57 75.88Q174.42 77.71 176.04 80.92Q177.66 84.13 177.66 88.33L177.66 88.33Q177.66 92.47 176.04 95.68Q174.42 98.89 171.57 100.72Q168.72 102.55 165 102.55ZM165 98.95L165 98.95Q167.40 98.95 169.20 97.57Q171 96.19 172.05 93.79Q173.10 91.39 173.10 88.27L173.10 88.27Q173.10 85.15 172.05 82.75Q171 80.35 169.20 79Q167.40 77.65 165 77.65L165 77.65Q162.66 77.65 160.83 79Q159 80.35 157.95 82.75Q156.90 85.15 156.90 88.27L156.90 88.27Q156.90 91.39 157.95 93.79Q159 96.19 160.83 97.57Q162.66 98.95 165 98.95ZM196.32 102.67L196.32 102.67Q193.32 102.67 190.86 101.74Q188.40 100.81 186.63 99.01Q184.86 97.21 183.90 94.54Q182.94 91.87 182.94 88.45L182.94 88.45Q182.94 84.97 183.93 82.27Q184.92 79.57 186.63 77.74Q188.34 75.91 190.65 74.95Q192.96 73.99 195.54 73.99L195.54 73.99Q197.88 73.99 199.92 74.77Q201.96 75.55 203.46 77.14Q204.96 78.73 205.83 81.19Q206.70 83.65 206.70 87.01L206.70 87.01Q206.70 87.49 206.67 88Q206.64 88.51 206.58 88.99L206.58 88.99L187.08 88.99Q187.20 91.63 187.98 93.58Q188.76 95.53 190.02 96.76Q191.28 97.99 192.93 98.59Q194.58 99.19 196.44 99.19L196.44 99.19Q197.88 99.19 199.14 98.86Q200.40 98.53 201.51 97.84Q202.62 97.15 203.52 96.13L203.52 96.13L205.92 98.47Q204.78 99.85 203.31 100.81Q201.84 101.77 200.10 102.22Q198.36 102.67 196.32 102.67ZM187.26 85.63L187.26 85.63L202.32 85.63Q202.32 83.71 201.81 82.18Q201.30 80.65 200.37 79.54Q199.44 78.43 198.15 77.86Q196.86 77.29 195.24 77.29L195.24 77.29Q193.80 77.29 192.51 77.77Q191.22 78.25 190.14 79.30Q189.06 80.35 188.31 81.91Q187.56 83.47 187.26 85.63ZM224.82 112.39L224.82 112.39Q221.94 112.39 219.63 111.94Q217.32 111.49 215.67 110.62Q214.02 109.75 213.15 108.43Q212.28 107.11 212.28 105.31L212.28 105.31Q212.28 103.63 213 102.31Q213.72 100.99 214.89 100.12Q216.06 99.25 217.44 98.83L217.44 98.83L219.24 99.91Q218.16 100.57 217.50 101.23Q216.84 101.89 216.54 102.76Q216.24 103.63 216.24 104.83L216.24 104.83Q216.24 105.85 216.84 106.66Q217.44 107.47 218.55 108.01Q219.66 108.55 221.25 108.85Q222.84 109.15 224.88 109.15L224.88 109.15Q227.64 109.15 229.35 108.58Q231.06 108.01 231.90 107.02Q232.74 106.03 232.74 104.77L232.74 104.77Q232.74 103.45 232.26 102.61Q231.78 101.77 230.28 101.35Q228.78 100.93 225.72 100.93L225.72 100.93Q223.62 100.93 221.88 100.75Q220.14 100.57 218.76 100.15Q217.38 99.73 216.45 99.10Q215.52 98.47 215.04 97.57Q214.56 96.67 214.56 95.47L214.56 95.47Q214.56 93.91 215.43 92.47Q216.30 91.03 217.80 89.71L217.80 89.71L219.84 91.33Q219.24 91.99 218.88 92.50Q218.52 93.01 218.37 93.46Q218.22 93.91 218.22 94.45L218.22 94.45Q218.22 95.41 218.97 96.01Q219.72 96.61 221.58 96.88Q223.44 97.15 226.62 97.15L226.62 97.15Q229.80 97.15 231.78 97.66Q233.76 98.17 234.81 99.13Q235.86 100.09 236.28 101.35Q236.70 102.61 236.70 104.11L236.70 104.11Q236.70 105.73 236.07 107.20Q235.44 108.67 234.06 109.84Q232.68 111.01 230.40 111.70Q228.12 112.39 224.82 112.39ZM223.56 92.77L223.56 92.77Q220.62 92.77 218.46 91.48Q216.30 90.19 215.13 88Q213.96 85.81 213.96 83.17L213.96 83.17Q213.96 80.53 215.13 78.37Q216.30 76.21 218.46 74.92Q220.62 73.63 223.56 73.63L223.56 73.63Q226.56 73.63 228.69 74.92Q230.82 76.21 231.99 78.37Q233.16 80.53 233.16 83.17L233.16 83.17Q233.16 85.81 231.99 88Q230.82 90.19 228.69 91.48Q226.56 92.77 223.56 92.77ZM223.56 89.17L223.56 89.17Q225.30 89.17 226.65 88.36Q228 87.55 228.78 86.17Q229.56 84.79 229.56 83.17L229.56 83.17Q229.56 81.49 228.78 80.14Q228 78.79 226.65 77.98Q225.30 77.17 223.56 77.17L223.56 77.17Q221.82 77.17 220.47 77.98Q219.12 78.79 218.34 80.14Q217.56 81.49 217.56 83.17L217.56 83.17Q217.56 84.79 218.34 86.17Q219.12 87.55 220.47 88.36Q221.82 89.17 223.56 89.17ZM231.54 79.09L231.54 79.09L229.86 77.11Q231.60 75.37 233.49 74.56Q235.38 73.75 237.96 73.93L237.96 73.93L238.50 77.47Q236.52 77.29 234.78 77.59Q233.04 77.89 231.54 79.09ZM255 102.55L255 102.55Q251.28 102.55 248.43 100.72Q245.58 98.89 243.96 95.68Q242.34 92.47 242.34 88.33L242.34 88.33Q242.34 84.13 243.96 80.92Q245.58 77.71 248.43 75.88Q251.28 74.05 255 74.05L255 74.05Q258.72 74.05 261.57 75.88Q264.42 77.71 266.04 80.92Q267.66 84.13 267.66 88.33L267.66 88.33Q267.66 92.47 266.04 95.68Q264.42 98.89 261.57 100.72Q258.72 102.55 255 102.55ZM255 98.95L255 98.95Q257.40 98.95 259.20 97.57Q261 96.19 262.05 93.79Q263.10 91.39 263.10 88.27L263.10 88.27Q263.10 85.15 262.05 82.75Q261 80.35 259.20 79Q257.40 77.65 255 77.65L255 77.65Q252.66 77.65 250.83 79Q249 80.35 247.95 82.75Q246.90 85.15 246.90 88.27L246.90 88.27Q246.90 91.39 247.95 93.79Q249 96.19 250.83 97.57Q252.66 98.95 255 98.95ZM278.04 112.09L273.60 112.09L273.60 74.65L277.98 74.65L277.98 80.05Q278.64 77.95 279.87 76.63Q281.10 75.31 282.75 74.68Q284.40 74.05 286.32 74.05L286.32 74.05Q288.60 74.05 290.67 74.92Q292.74 75.79 294.33 77.53Q295.92 79.27 296.85 81.91Q297.78 84.55 297.78 88.15L297.78 88.15Q297.78 91.75 296.79 94.51Q295.80 97.27 294.15 99.10Q292.50 100.93 290.43 101.86Q288.36 102.79 286.20 102.79L286.20 102.79Q284.58 102.79 283.05 102.28Q281.52 101.77 280.26 100.78Q279 99.79 278.04 98.47L278.04 98.47L278.04 112.09ZM285.48 98.95L285.48 98.95Q286.92 98.95 288.30 98.44Q289.68 97.93 290.82 96.73Q291.96 95.53 292.62 93.46Q293.28 91.39 293.28 88.33L293.28 88.33Q293.28 85.03 292.44 82.72Q291.60 80.41 290.01 79.15Q288.42 77.89 286.14 77.77L286.14 77.77Q284.46 77.65 282.99 78.25Q281.52 78.85 280.38 80.23Q279.24 81.61 278.61 83.86Q277.98 86.11 277.98 89.29L277.98 89.29Q278.04 91.21 278.40 92.77Q278.76 94.33 279.42 95.50Q280.08 96.67 280.98 97.42Q281.88 98.17 283.02 98.56Q284.16 98.95 285.48 98.95Z"/>
    </g>
    <path fill="red" stroke="none" id="logo-left-bracket" d="M67.91 107.83L63.23 107.83Q53.87 107.83 47.63 105.95Q41.39 104.06 38.34 99.13Q35.28 94.19 35.67 85.08L35.67 85.08L36.19 72.08Q36.19 66.36 34.83 63.18Q33.46 59.99 30.86 58.76Q28.26 57.52 24.49 57.52L24.49 57.52L21.89 57.52L21.89 50.24L24.36 50.24Q28.39 50.24 31.05 48.81Q33.72 47.38 35.09 44.33Q36.45 41.27 36.45 36.34L36.45 36.34L36.19 26.97Q36.19 19.44 38.86 14.43Q41.52 9.42 46.78 6.89Q52.05 4.35 59.85 4.35L59.85 4.35L68.04 4.35L68.04 11.77L57.38 11.77Q51.40 11.77 48.34 15.21Q45.29 18.66 45.29 25.55L45.29 25.55L45.55 34.64Q45.55 39.45 44.31 43.16Q43.08 46.86 40.55 49.53Q38.01 52.20 34.24 53.88L34.24 53.88Q38.01 55.05 40.41 57.72Q42.82 60.38 44.05 64.41Q45.29 68.44 45.29 74.03L45.29 74.03L44.90 84.95Q44.90 90.81 46.59 94.25Q48.28 97.69 51.92 99.13Q55.56 100.56 61.28 100.56L61.28 100.56L67.91 100.56L67.91 107.83Z"/>
    <path fill="white" stroke="none" id="logo-right-bracket" d="M326.83 107.83L326.83 107.83L322.15 107.83L322.15 100.56L328.78 100.56Q334.63 100.56 338.20 99.13Q341.78 97.69 343.47 94.25Q345.16 90.81 345.16 84.95L345.16 84.95L344.77 74.03Q344.77 68.44 346.00 64.41Q347.24 60.38 349.71 57.72Q352.18 55.05 355.82 53.88L355.82 53.88Q352.05 52.20 349.51 49.53Q346.98 46.86 345.75 43.16Q344.51 39.45 344.51 34.64L344.51 34.64L344.77 25.55Q344.77 18.66 341.78 15.21Q338.79 11.77 332.68 11.77L332.68 11.77L322.02 11.77L322.02 4.35L330.21 4.35Q338.14 4.35 343.34 6.89Q348.54 9.42 351.20 14.43Q353.87 19.44 353.87 26.97L353.87 26.97L353.61 36.34Q353.61 41.27 354.98 44.33Q356.34 47.38 359.07 48.81Q361.80 50.24 365.70 50.24L365.70 50.24L368.17 50.24L368.17 57.52L365.57 57.52Q361.93 57.52 359.26 58.76Q356.60 59.99 355.24 63.18Q353.87 66.36 353.87 72.08L353.87 72.08L354.39 85.08Q354.78 94.19 351.79 99.13Q348.80 104.06 342.50 105.95Q336.19 107.83 326.83 107.83Z"/>
</svg>
